<?xml version="1.0" encoding="utf-8"?>
<!-- Generator: Adobe Illustrator 27.1.1, SVG Export Plug-In . SVG Version: 6.00 Build 0)  -->
<svg version="1.1" id="Layer_1" xmlns="http://www.w3.org/2000/svg" xmlns:xlink="http://www.w3.org/1999/xlink" x="0px" y="0px"
	 viewBox="0 0 224 64" style="enable-background:new 0 0 224 64;" xml:space="preserve">
<style type="text/css">
	.st0{fill:#1C6EB7;}
	.st1{fill:#2E4096;}
	.st2{fill:#4298B5;}
</style>
<path class="st0" d="M191.853,0C174.429,0,160,14.429,160,32.144c0,17.687,14.429,32.057,32.144,31.853
	c17.629,0,31.854-14.225,31.854-31.853C224.202,14.487,209.773,0,191.853,0z M191.853,59.78c-15.243,0-27.722-12.451-27.722-27.635
	c0-15.243,12.654-27.635,27.839-27.635c15.243,0,27.723,12.45,27.723,27.635C219.78,47.329,207.329,59.78,191.853,59.78z"/>
<path class="st0" d="M191.505,18.443c-6.167,0-11.345-1.978-13.469-3.375c-0.145-0.116-0.378-0.029-0.436,0.146l-1.484,3.782
	c-0.058,0.145,0,0.291,0.146,0.378c4.421,2.153,9.076,3.636,12.683,3.636v32.261c0,0.175,0.116,0.291,0.291,0.291h5.76
	c0.174,0,0.291-0.116,0.291-0.291V23.01c2.996,0,8.843-1.891,12.479-3.665c0.146-0.058,0.204-0.233,0.146-0.378l-1.484-3.811
	c-0.058-0.174-0.262-0.233-0.436-0.145C203.548,16.406,197.73,18.443,191.505,18.443z"/>
<path class="st1" d="M111.887,0C94.424,0,80,14.432,80,32.107c0,17.674,14.432,32.115,32.111,31.891
	c17.648,0.008,31.887-14.24,31.887-31.891C144.182,14.457,129.759,0,111.887,0z M111.887,59.795
	c-15.231,0-27.679-12.447-27.679-27.68S96.84,4.427,112.079,4.427c15.24,0,27.679,12.447,27.679,27.68
	S127.343,59.795,111.887,59.795z"/>
<path class="st1" d="M125.494,44.524c-0.176-1.136-0.616-2.069-1.303-2.756c-0.668-0.66-1.566-1.101-2.666-1.312
	c-1.32-0.247-2.711-0.326-4.048-0.405c-0.651-0.035-1.32-0.079-1.98-0.132h-0.018c-0.343-0.027-0.686-0.053-1.021-0.079h-0.035
	c-0.977-0.07-1.98-0.141-2.939-0.326h-0.009c-0.009,0-0.713-0.202-0.722-0.836v-0.053c0.009-0.176,0.018-0.44,0.159-0.616
	l0.017-0.018c0.168-0.202,0.37-0.449,1.004-0.528c0.114-0.018,0.246-0.027,0.396-0.035l0.132-0.009
	c0.642-0.044,1.302-0.07,1.936-0.097c1.54-0.07,3.124-0.15,4.664-0.352c3.898-0.52,5.236-2.835,5.667-4.685
	c0.564-2.377,0.907-5.442-1.399-7.996c0.554-0.59,1.17-1.25,1.795-1.876c0.335-0.335,0.493-0.669,0.467-1.004
	c-0.009-0.167-0.071-0.335-0.167-0.502c-0.088-0.15-0.22-0.299-0.388-0.44c-0.07-0.062-0.132-0.123-0.202-0.185
	c-0.071-0.062-0.141-0.132-0.211-0.194c-0.124-0.106-0.291-0.247-0.484-0.335c-0.212-0.097-0.414-0.115-0.616-0.07
	c-0.22,0.044-0.44,0.176-0.678,0.388c-0.66,0.616-1.346,1.259-2.059,1.814c-0.115,0.088-0.273,0.167-0.44,0.211
	c-0.15,0.044-0.291,0.053-0.37,0.026c-2.077-0.757-4.189-0.696-5.984-0.528c-1.795,0.167-3.397,0.81-4.647,1.849
	c-1.267,1.057-2.059,2.43-2.27,3.989c-0.273,1.999-0.22,3.522,0.176,4.79c0.458,1.479,1.355,2.633,2.763,3.531
	c-0.704,0.194-1.267,0.449-1.698,0.784c-0.66,0.493-1.056,1.153-1.215,2.025c-0.141,0.784-0.07,1.497,0.22,2.113
	c0.256,0.537,0.678,0.995,1.241,1.365c-0.994,0.784-1.654,1.735-1.962,2.836c-0.308,1.074-0.291,2.272,0.044,3.672
	c0.272,1.154,0.862,2.025,1.786,2.668c0.722,0.502,1.619,0.854,2.913,1.153c0.836,0.194,1.69,0.282,2.508,0.37
	c0.317,0.035,2.059,0.106,2.948,0.106c0.115,0,0.211,0,0.291,0h0.026c0.51,0.018,1.003-0.018,1.487-0.062
	c0.15-0.009,0.291-0.026,0.432-0.035c2.358-0.159,4.153-0.978,5.332-2.439c0.828-1.03,1.241-2.378,1.241-4.015
	C125.635,45.713,125.582,45.132,125.494,44.524z M119.026,49.35c-0.722,0.079-1.461,0.123-2.236,0.176
	c-0.343,0.018-1.865-0.018-2.305-0.062c-0.748-0.07-1.514-0.15-2.306-0.291c-0.651-0.123-1.162-0.396-1.514-0.819
	c-0.343-0.414-0.545-0.969-0.607-1.673c-0.061-0.784,0.071-1.585,0.379-2.245c0.299-0.652,0.748-1.145,1.249-1.365
	c0.106-0.044,0.255-0.07,0.423-0.07c0.748,0.035,1.505,0.07,2.235,0.106h0.026c1.725,0.079,3.503,0.159,5.281,0.317
	c0.774,0.07,1.328,0.308,1.716,0.713c0.369,0.396,0.58,0.951,0.633,1.7c0.062,0.819-0.079,1.523-0.422,2.087
	c-0.343,0.564-0.871,0.96-1.567,1.189h-0.008C119.686,49.226,119.343,49.332,119.026,49.35z M111.554,26.146
	c0.819-0.898,2.244-1.33,4.356-1.33c0.053,0,0.106,0,0.159,0c0.114,0,0.22,0,0.334,0h0.097c0.396-0.009,0.774-0.018,1.153,0.044
	h0.017c1.321,0.185,2.262,0.625,2.869,1.33c0.608,0.704,0.907,1.7,0.907,3.038c0,0.344,0,0.696-0.018,1.057
	c-0.035,0.925-0.246,1.638-0.66,2.184c-0.202,0.273-0.466,0.502-0.783,0.696c-0.326,0.202-0.695,0.361-1.144,0.484
	c-1.919,0.546-3.89,0.511-5.852-0.088c-0.678-0.22-1.215-0.572-1.593-1.057c-0.37-0.467-0.607-1.083-0.687-1.814
	c-0.061-0.52-0.096-1.004-0.096-1.444C110.604,27.855,110.912,26.851,111.554,26.146z"/>
<path class="st1" d="M109.954,18.424c-0.026,0.37-0.14,0.625-0.334,0.784c-0.185,0.15-0.449,0.211-0.801,0.185
	c-0.634-0.044-1.346-0.088-2.033-0.07c-1.241,0.035-2.121,0.326-2.693,0.898c-0.572,0.572-0.854,1.453-0.862,2.694
	c-0.027,2.43-0.027,4.834-0.027,6.666c0,1.074,0,2.149,0,3.214c0,1.101,0,2.201,0,3.302c0,0.396-0.017,0.669-0.061,0.889
	c-0.053,0.264-0.15,0.458-0.3,0.608c-0.149,0.15-0.334,0.238-0.607,0.291c-0.211,0.044-0.484,0.062-0.88,0.062
	c-0.308,0-0.633-0.009-0.889-0.053c-0.273-0.044-0.457-0.132-0.598-0.273c-0.141-0.141-0.229-0.335-0.282-0.608
	c-0.035-0.211-0.053-0.475-0.053-0.907c-0.018-1.427-0.009-2.862-0.009-4.447c0-0.748,0.009-1.488,0.009-2.237v-6.164
	c0-0.255,0.009-6.71,0.009-6.71c0-0.784,0.106-1.347,0.308-1.735c0.123-0.22,0.282-0.387,0.475-0.502
	c0.194-0.106,0.432-0.158,0.705-0.158c0.404,0.009,0.871,0.071,1.214,0.432c0.334,0.352,0.502,0.925,0.51,1.796
	c0,0.123,0,0.247,0.009,0.37c1.356-0.748,3.089-1.057,5.157-0.925c0.44,0.026,0.775,0.053,1.039,0.115
	c0.317,0.07,0.545,0.185,0.704,0.361c0.167,0.185,0.255,0.44,0.299,0.801C109.99,17.429,109.99,17.816,109.954,18.424z"/>
<path class="st2" d="M31.891,0C14.428,0,0,14.428,0,32.107c0,17.679,14.428,32.107,32.107,31.89
	c17.648,0,31.891-14.242,31.891-31.89C64.184,14.428,49.756,0,31.891,0z M31.891,59.787c-15.233,0-27.68-12.446-27.68-27.68
	s12.632-27.68,27.866-27.68c15.233,0,27.68,12.447,27.68,27.68S47.341,59.787,31.891,59.787z"/>
<path class="st2" d="M33.284,32.107c0-5.418,4.613-10.032,10.032-10.032c1.424,0,2.818,0.403,4.428,1.177
	c4.799,2.229,7.028,8.236,4.613,13.252c-2.229,4.799-8.236,7.028-13.252,4.613v-5.016l0.403,0.403
	c0.991,0.991,2.415,1.393,3.808,1.393c3.22-0.186,5.821-2.787,5.821-6.007c-0.186-3.22-2.787-5.821-6.007-5.821
	c-3.22,0.186-5.821,2.787-5.821,6.007v13.437c0,2.229-1.827,4.025-4.025,4.025V32.107z"/>
<path class="st2" d="M26.689,32.076v-5.201c0-2.198,1.982-3.994,4.18-3.994v18.856c-1.424,0-2.818-0.991-3.623-2.198
	c-3.003,2.787-7.802,3.189-11.425,0.991c-4.799-2.818-6.223-8.855-3.406-13.654c2.818-4.799,8.855-6.223,13.654-3.406v0.186
	c-0.588,1.022-0.991,2.013-0.991,3.22v1.207l-0.186-0.186c-1.208-1.208-2.632-1.61-4.025-1.61c-3.22,0-5.821,2.57-5.821,5.79
	s2.601,5.821,5.821,5.821C24.088,37.897,26.689,35.296,26.689,32.076z"/>
</svg>
