<svg width="192" height="40" viewBox="0 0 192 40" fill="none" xmlns="http://www.w3.org/2000/svg">
<path d="M61.0698 13.0249H64.0995L70.1588 26.8561H67.3926L66.0753 24.0898H58.6987L57.3815 26.8561H54.6152L61.0698 13.0249ZM59.8842 21.9822H65.4167L62.6505 15.6594L59.8842 21.9822ZM83.4631 27.2512C79.643 27.2512 77.1403 25.1436 77.1403 20.9284V13.2884H79.7748V20.9284C79.7748 23.6947 81.3555 25.0119 83.5948 25.0119C85.8341 25.0119 87.4148 23.6947 87.4148 21.0601V13.2884H89.9176V20.7967C89.7859 25.1436 87.2831 27.2512 83.4631 27.2512Z" fill="#6D6E71"/>
<path d="M105.461 15.6586V26.9875H102.827V15.6586H97.5576V13.2876H110.861V15.5275H105.461V15.6586Z" fill="#6D6E71"/>
<path d="M124.693 27.2511C120.478 27.2511 117.448 24.2214 117.448 20.138C117.448 16.0545 120.478 12.8931 124.693 12.8931C128.908 12.8931 131.938 15.9227 131.938 20.0062C131.938 24.0897 129.04 27.2511 124.693 27.2511ZM124.693 15.2641C122.059 15.2641 120.083 17.3717 120.083 20.138C120.083 22.9042 121.927 25.0118 124.693 25.0118C127.459 25.0118 129.304 22.9042 129.304 20.138C129.304 17.3717 127.459 15.2641 124.693 15.2641ZM145.242 22.7725H142.74V26.9877H140.105V13.2882H145.374C149.457 13.2882 151.565 14.8689 151.565 17.8986C151.697 21.1918 149.326 22.7725 145.242 22.7725ZM145.506 15.3958H142.871V20.6649H145.374C147.745 20.6649 149.194 19.7428 149.194 18.0304C149.194 16.3179 148.009 15.3958 145.506 15.3958ZM163.552 13.0248H166.582L172.641 26.8559H170.007L168.689 24.0897H161.313L160.127 26.8559H157.361L163.552 13.0248ZM162.235 21.9821H167.767L165.001 15.6593L162.235 21.9821Z" fill="#6D6E71"/>
<path d="M185.286 21.8498V27.119H182.651V21.8498L176.856 13.4204H179.886L183.969 19.4789L188.053 13.4204H191.082L185.286 21.8498Z" fill="#6D6E71"/>
<path d="M19.9367 0C9.02792 0 0 9.02792 0 20.062C0 31.0962 9.02792 40.1241 20.062 39.9987C31.0962 39.9987 39.9987 31.0962 39.9987 20.062C40.1241 9.02792 31.0962 0 19.9367 0ZM19.9367 37.3656C10.4072 37.3656 2.63314 29.5915 2.63314 20.062C2.63314 10.5326 10.5326 2.75853 20.062 2.75853C29.5915 2.75853 37.3656 10.5326 37.3656 20.062C37.3656 29.5915 29.5915 37.3656 19.9367 37.3656ZM27.0838 13.7927C23.6983 13.7927 20.8144 16.6766 20.8144 20.062V30.9708C22.1936 30.9708 23.3221 29.8423 23.3221 28.463V20.062C23.3221 18.0558 24.9522 16.4258 26.9584 16.3004C28.9646 16.3004 30.5946 17.9305 30.72 19.9367C30.72 21.9429 29.09 23.5729 27.0838 23.6983C26.206 23.6983 25.3283 23.4475 24.7014 22.8206L24.4506 22.5698V25.7045C27.5853 27.2092 31.3469 25.8299 32.7262 22.8206C34.2309 19.6859 32.8516 15.9243 29.8423 14.545C28.8392 14.0434 27.9615 13.7927 27.0838 13.7927ZM16.6766 16.802V20.062C16.6766 22.0683 15.0465 23.6983 13.0403 23.6983C11.0341 23.6983 9.40408 22.0683 9.40408 20.062C9.40408 18.0558 11.0341 16.4258 13.0403 16.4258C13.918 16.4258 14.7958 16.6766 15.5481 17.4289L15.6735 17.5543V16.802C15.6735 16.0496 15.9243 15.4227 16.3004 14.7958V14.6704C13.2911 12.9149 9.52947 13.7927 7.77404 16.802C6.01861 19.8113 6.89633 23.5729 9.90564 25.3283C12.1626 26.7076 15.1719 26.4568 17.0527 24.7014C17.5543 25.4537 18.432 26.0807 19.3097 26.0807V14.2942C17.9305 14.2942 16.6766 15.4227 16.6766 16.802Z" fill="#4298B5"/>
</svg>
