<?xml version="1.0" encoding="UTF-8"?>
<svg width="100%" viewBox="0 0 700 700" version="1.1" xmlns="http://www.w3.org/2000/svg">
    <g id="No-comments-yet" stroke="none" stroke-width="1" fill="none" fill-rule="evenodd">
        <g transform="translate(114.214400, 178.809219)">
            <path d="M466.654,276.110481 C466.654,270.470481 362.19,265.898481 233.327,265.898481 C104.464,265.898481 0,270.470481 0,276.110481 C0,281.750481 104.464,286.322481 233.327,286.322481 C362.19,286.322481 466.654,281.750481 466.654,276.110481" id="Shadow" fill="#C7EFFC"></path>
            <g id="Element" transform="translate(400.395300, 132.364969)">
                <path d="M46.4394,50.7113122 C59.5314,30.6793122 55.0604,10.7573122 40.7674,29.6883122 C50.9104,3.78031222 34.8364,-20.9486878 24.3834,28.2893122 C16.4594,6.06231222 3.0934,26.6893122 12.1214,56.5203122 C1.7014,41.4743122 -4.0406,69.7733122 8.7914,90.1443122 L29.0914,91.5623122 C37.6664,82.0963122 46.3604,72.4563122 51.8974,60.9463122 C53.1904,58.2603122 54.3084,55.1153122 53.1484,52.3693122 C52.0674,49.8123122 48.0674,48.7033122 46.4394,50.7113122" id="Shape" fill="#386795"></path>
                <path d="M64.1054,58.3656122 C81.3344,40.0476122 70.4334,27.1816122 53.2564,46.7476122 C52.7514,29.4696122 37.6514,43.5926122 36.8904,60.7366122 C36.3664,58.5006122 34.3104,56.4366122 32.1854,56.5656122 C29.0014,56.7576122 26.5434,59.8916122 24.8334,63.0556122 C20.8794,70.3706122 18.8704,81.2716122 19.2544,89.9276122 L50.7314,89.9276122 C65.8364,84.5406122 61.1624,75.9866122 54.0984,78.8096122 C65.6984,76.9346122 82.2014,51.7666122 64.1054,58.3656122" id="Shape" fill="#4C7BB1"></path>
                <path d="M65.6018017,43.7666717 C66.0183573,43.4040425 66.6500113,43.4477584 67.0126405,43.8643139 C67.3752697,44.2808695 67.3315538,44.9125235 66.9149983,45.2751527 C53.7791782,56.71044 38.6105328,75.3963744 26.3543705,94.0666866 C26.0512907,94.5283804 25.4313193,94.6569624 24.9696256,94.3538827 C24.5079318,94.0508029 24.3793498,93.4308315 24.6824295,92.9691378 C37.0302656,74.1591752 52.3062498,55.3410124 65.6018017,43.7666717 Z" id="Shape" fill="#386795"></path>
                <polygon id="Shape" fill="#ED8E93" points="44.831 141.103912 6.207 141.103912 2.27373675e-13 90.0649122 51.038 90.0649122"></polygon>
                <polygon id="Shape" fill="#D76D75" points="49.8173 99.1049122 49.8173 101.104912 1.4173 101.104912 1.4173 99.1049122"></polygon>
            </g>
            <g id="Character" transform="translate(2.441596, 0.000000)">
                <polygon id="Shape" fill="#A55C72" points="378.127404 232.626081 397.226404 232.626081 388.051404 276.110081 378.127404 276.110081"></polygon>
                <polygon id="Shape" fill="#A55C72" points="57.0815035 232.626081 38.6235035 232.626081 47.4905035 276.110081 57.0815035 276.110081"></polygon>
                <path d="M395.025904,72.4746807 C374.530904,34.7086807 34.9159035,40.7866807 34.6449035,86.7906807 C34.3919035,129.749681 34.0709035,172.746681 37.0899035,215.551681 L399.504904,218.984681 C399.504904,218.984681 402.796904,86.7926807 395.025904,72.4746807" id="Shape" fill="#FFB361"></path>
                <path d="M54.7104035,134.355581 L29.1514035,134.355581 C22.5514035,134.355581 17.1514035,139.755581 17.1514035,146.355581 L17.1514035,244.450581 C17.1514035,251.049581 22.5514035,256.450581 29.1514035,256.450581 L66.7104035,256.450581 L66.7104035,146.355581 C66.7104035,139.755581 61.3104035,134.355581 54.7104035,134.355581" id="Shape" fill="#FFCB62"></path>
                <path d="M402.508304,134.355581 L376.949304,134.355581 C370.350304,134.355581 364.949304,139.755581 364.949304,146.355581 L364.949304,256.450581 L402.508304,256.450581 C409.109304,256.450581 414.508304,251.049581 414.508304,244.450581 L414.508304,146.355581 C414.508304,139.755581 409.109304,134.355581 402.508304,134.355581" id="Shape" fill="#FFCB62"></path>
                <path d="M365.654804,176.885881 L69.0818035,176.885881 C62.4818035,176.885881 57.0818035,182.285881 57.0818035,188.885881 L57.0818035,244.449881 C57.0818035,251.049881 62.4818035,256.449881 69.0818035,256.449881 L365.654804,256.449881 C372.255804,256.449881 377.654804,251.049881 377.654804,244.449881 L377.654804,188.885881 C377.654804,182.285881 372.255804,176.885881 365.654804,176.885881" id="Shape" fill="#FFCB62"></path>
                <path d="M301.556104,188.412181 L96.5971035,188.412181 C96.0441035,188.412181 95.5971035,187.965181 95.5971035,187.412181 C95.5971035,186.859181 96.0441035,186.412181 96.5971035,186.412181 L301.556104,186.412181 C302.109104,186.412181 302.556104,186.859181 302.556104,187.412181 C302.556104,187.965181 302.109104,188.412181 301.556104,188.412181" id="Shape" fill="#FFB361"></path>
                <path d="M69.0815035,257.450281 C61.9135035,257.450281 56.0815035,251.618281 56.0815035,244.450281 L56.0815035,188.886281 C56.0815035,181.718281 61.9135035,175.886281 69.0815035,175.886281 C69.6345035,175.886281 70.0815035,176.333281 70.0815035,176.886281 C70.0815035,177.438281 69.6345035,177.886281 69.0815035,177.886281 C63.0165035,177.886281 58.0815035,182.820281 58.0815035,188.886281 L58.0815035,244.450281 C58.0815035,250.515281 63.0165035,255.450281 69.0815035,255.450281 C69.6345035,255.450281 70.0815035,255.897281 70.0815035,256.450281 C70.0815035,257.003281 69.6345035,257.450281 69.0815035,257.450281" id="Shape" fill="#FFB361"></path>
                <path d="M113.391104,105.346781 C85.4221035,110.006781 60.7231035,118.625781 37.0091035,133.654781 C25.3141035,135.206781 30.8221035,143.545781 37.8771035,145.130781 C49.1941035,164.966781 64.5061035,184.237781 82.3261035,198.987781 C84.6831035,210.783781 91.7241035,211.702781 96.7941035,201.284781 C126.019104,195.897781 153.892104,189.281781 178.600104,173.308781 C187.280104,171.544781 188.848104,165.398781 177.804104,161.244781 C155.613104,129.227781 129.800104,112.118781 113.391104,105.346781" id="Shape" fill="#FFFFFF"></path>
                <path d="M122.308104,170.681781 C122.288104,170.681781 122.268104,170.680781 122.247104,170.679781 C103.184104,169.551781 84.5741035,162.238781 69.8431035,150.086781 C69.4171035,149.735781 69.3571035,149.105781 69.7081035,148.678781 C70.0601035,148.253781 70.6891035,148.192781 71.1171035,148.543781 C85.5221035,160.427781 103.723104,167.579781 122.367104,168.683781 C122.917104,168.715781 123.338104,169.189781 123.305104,169.741781 C123.274104,170.271781 122.833104,170.681781 122.308104,170.681781" id="Shape" fill="#C7EFFC"></path>
                <path d="M101.093304,156.249081 C100.978304,156.249081 100.861304,156.229081 100.746304,156.187081 C93.9253035,153.666081 87.5233035,150.169081 81.7173035,145.793081 C81.2763035,145.460081 81.1883035,144.833081 81.5203035,144.393081 C81.8533035,143.952081 82.4803035,143.862081 82.9203035,144.195081 C88.5713035,148.454081 94.8013035,151.857081 101.440304,154.311081 C101.957304,154.503081 102.223304,155.077081 102.031304,155.596081 C101.882304,155.999081 101.499304,156.249081 101.093304,156.249081" id="Shape" fill="#C7EFFC"></path>
                <path d="M365.654804,257.450281 C365.101804,257.450281 364.654804,257.003281 364.654804,256.450281 C364.654804,255.897281 365.101804,255.450281 365.654804,255.450281 C371.719804,255.450281 376.654804,250.515281 376.654804,244.450281 L376.654804,188.886281 C376.654804,182.820281 371.719804,177.886281 365.654804,177.886281 C365.101804,177.886281 364.654804,177.438281 364.654804,176.886281 C364.654804,176.333281 365.101804,175.886281 365.654804,175.886281 C372.822804,175.886281 378.654804,181.718281 378.654804,188.886281 L378.654804,244.450281 C378.654804,251.618281 372.822804,257.450281 365.654804,257.450281" id="Shape" fill="#FFB361"></path>
                <path d="M136.559104,0.644680745 L123.378104,11.6356807 C122.199104,12.6196807 122.039104,14.3736807 123.024104,15.5526807 L144.941104,41.8376807 C145.925104,43.0176807 147.678104,43.1756807 148.859104,42.1926807 L162.038104,31.2026807 C163.218104,30.2186807 163.377104,28.4646807 162.394104,27.2846807 L140.476104,0.999680745 C139.493104,-0.179319255 137.739104,-0.338319255 136.559104,0.644680745" id="Shape" fill="#353D59"></path>
                <path d="M220.170404,54.0420807 C210.894404,53.0500807 202.239404,52.5820807 194.402404,52.4920807 L197.554404,86.5410807 C197.554404,86.5410807 258.114404,83.1420807 262.160404,69.9560807 L220.170404,54.0420807 Z" id="Shape" fill="#F7C7B5"></path>
                <path d="M262.160604,69.9561807 C267.609604,39.8621807 202.226604,23.1351807 177.196604,17.1411807 C167.785604,14.8871807 158.669604,11.1461807 149.567604,14.5971807 C145.815604,16.0191807 140.354604,21.6521807 141.107604,22.2661807 C141.859604,22.8801807 150.271604,17.5801807 150.271604,17.5801807 C150.271604,17.5801807 142.414604,24.1421807 143.076604,24.8301807 C143.737604,25.5191807 152.555604,19.9801807 152.555604,19.9801807 C152.555604,19.9801807 144.702604,26.2661807 145.429604,26.8991807 C146.155604,27.5341807 154.338604,22.6851807 154.338604,22.6851807 C154.338604,22.6851807 147.721604,28.0651807 148.501604,28.8511807 C149.282604,29.6361807 154.342604,26.4261807 157.122604,24.7421807 C186.326604,36.3031807 233.536604,66.1301807 262.160604,69.9561807" id="Shape" fill="#F7C7B5"></path>
                <path d="M215.234742,52.8358544 C215.464618,52.3336834 216.058059,52.1129443 216.56023,52.3428197 L235.3953,60.9658518 C235.897453,61.195766 236.118147,61.7892239 235.888232,62.2913772 C235.658318,62.7935305 235.06486,63.0142239 234.562707,62.7843097 L215.727777,54.1613418 C215.225606,53.9314663 215.004867,53.3380254 215.234742,52.8358544 Z" id="Shape" fill="#E0A797"></path>
                <path d="M75.4663035,91.4649807 C63.8113035,94.4229807 52.1983035,97.5659807 40.6403035,100.925981 C55.9443035,87.4249807 91.7383035,66.8529807 91.7383035,66.8529807 L85.6403035,54.6889807 C85.6403035,54.6889807 33.5153035,76.7619807 12.0923035,94.4849807 C6.0783035,99.4579807 -0.187696497,105.924981 0.0043035025,114.032981 C0.141303503,119.764981 3.6913035,124.941981 8.1973035,128.073981 C12.7043035,131.206981 18.0723035,132.592981 23.3783035,133.552981 C39.8943035,136.541981 59.1043035,136.319981 77.0013035,135.009981 C75.2723035,120.741981 75.4323035,106.116981 75.4663035,91.4649807" id="Shape" fill="#F7C7B5"></path>
                <path d="M136.026804,85.5264807 C139.948804,79.2524807 140.955804,70.0734807 139.216804,63.5324807 C134.553804,66.6814807 127.711804,70.3914807 122.502804,73.5724807 L112.690804,64.7754807 C119.121804,53.2304807 96.4908035,40.0994807 91.9778035,36.9774807 L77.7038035,51.8774807 L85.0288035,65.4014807 C76.5758035,68.5014807 84.7478035,76.3894807 91.2278035,70.4464807 L103.847804,83.4334807 L91.5058035,88.1484807 C102.385804,103.189481 127.397804,98.9504807 136.026804,85.5264807" id="Shape" fill="#F7C7B5"></path>
                <path d="M87.0259035,56.7676807 C85.7299035,54.1836807 83.3239035,52.3656807 80.9789035,50.6736807 C79.7889035,49.8146807 78.4969035,48.9296807 77.0299035,48.8876807 C74.9019035,48.8266807 73.0589035,50.6816807 72.5879035,52.7566807 C72.1159035,54.8316807 72.7569035,57.0156807 73.7529035,58.8966807 C74.9729035,61.2056807 76.7939035,63.2696807 79.1539035,64.3896807 C81.1249035,65.3266807 84.7859035,65.9246807 86.5389035,64.1796807 C88.3399035,62.3886807 88.0569035,58.8236807 87.0259035,56.7676807" id="Shape" fill="#ED8E93"></path>
                <path d="M74.9263035,43.1006807 C75.6183035,40.2356807 77.2123035,37.6686807 78.1213035,34.8646807 C78.7293035,32.9876807 79.0513035,30.9586807 80.1943035,29.3506807 C81.8323035,27.0446807 85.0283035,26.0856807 87.7543035,26.8386807 C90.4803035,27.5916807 92.6553035,29.8826807 93.5583035,32.5636807 C94.4613035,35.2436807 94.1703035,38.2466807 93.0573035,40.8456807 C91.9443035,43.4466807 90.0543035,45.6636807 87.8603035,47.4486807 C85.0753035,49.7136807 81.2023035,51.5686807 77.5013035,50.8056807 C74.4123035,50.1696807 74.3413035,45.5206807 74.9263035,43.1006807" id="Shape" fill="#ED8E93"></path>
                <path d="M103.469204,47.9092807 C103.109204,47.2642807 102.295204,47.0342807 101.651204,47.3932807 C101.007204,47.7532807 100.777204,48.5672807 101.136204,49.2112807 C101.495204,49.8552807 102.309204,50.0862807 102.953204,49.7262807 C103.598204,49.3672807 103.828204,48.5532807 103.469204,47.9092807" id="Shape" fill="#353D59"></path>
                <path d="M95.4507035,53.9151807 C95.0907035,53.2711807 94.2767035,53.0411807 93.6327035,53.4001807 C92.9887035,53.7601807 92.7577035,54.5731807 93.1177035,55.2181807 C93.4767035,55.8621807 94.2907035,56.0931807 94.9347035,55.7331807 C95.5797035,55.3731807 95.8097035,54.5601807 95.4507035,53.9151807" id="Shape" fill="#353D59"></path>
                <path d="M89.7407035,53.1270807 C89.6407035,53.1830807 89.5217035,53.2050807 89.4017035,53.1820807 C89.1307035,53.1290807 88.9527035,52.8660807 89.0047035,52.5950807 C89.4767035,50.1420807 92.0597035,48.3140807 94.5327035,48.6780807 C94.8057035,48.7190807 94.9957035,48.9740807 94.9557035,49.2470807 C94.9137035,49.5200807 94.6597035,49.7070807 94.3857035,49.6700807 C92.4187035,49.3770807 90.3637035,50.8330807 89.9887035,52.7840807 C89.9587035,52.9360807 89.8657035,53.0570807 89.7407035,53.1270807" id="Shape" fill="#D76D75"></path>
                <path d="M98.1059035,47.3106807 C98.0199035,47.3586807 97.9169035,47.3756807 97.8099035,47.3536807 C97.5669035,47.3006807 97.4009035,47.0576807 97.4379035,46.8086807 C97.7749035,44.5646807 99.8549035,42.8676807 102.074904,43.0286807 C102.320904,43.0466807 102.515904,43.2666807 102.511904,43.5196807 C102.507904,43.7746807 102.302904,43.9616807 102.059904,43.9476807 C100.299904,43.8206807 98.5859035,45.2156807 98.3179035,46.9976807 C98.2969035,47.1366807 98.2149035,47.2486807 98.1059035,47.3106807" id="Shape" fill="#D76D75"></path>
                <path d="M98.6722901,50.6590437 C98.8115968,50.420615 99.1178118,50.3402607 99.3562406,50.4795673 L100.369706,51.0749112 C100.684846,51.2613177 100.979979,51.4373873 101.263131,51.6082336 L102.084666,52.1102163 C103.424285,52.9399841 104.040221,53.3664765 104.186476,53.6672506 C104.409966,54.1258738 104.391475,54.6962996 104.207373,55.362307 C104.116491,55.6910793 103.986513,56.0346743 103.827542,56.3852373 C103.717735,56.6273846 103.600449,56.8589274 103.483025,57.0726565 L103.32202,57.3530242 C103.177463,57.5883068 102.869543,57.6618545 102.63426,57.5172976 C102.398977,57.3727406 102.32543,57.0648199 102.469987,56.8295373 L102.606589,56.5911367 C102.712371,56.3985999 102.81829,56.1894975 102.916808,55.9722448 C103.055793,55.6657542 103.167933,55.3693127 103.24352,55.0958716 C103.368709,54.6429893 103.379988,54.2950421 103.287347,54.1049326 C103.220858,53.9681997 101.158091,52.6905099 98.8517665,51.3429942 C98.6133377,51.2036875 98.5329834,50.8974724 98.6722901,50.6590437 Z" id="Shape" fill="#E0A797"></path>
                <path d="M107.916578,58.0608771 C108.188746,58.0141949 108.447225,58.1969873 108.493907,58.4691552 C108.540589,58.7413231 108.357797,58.9998022 108.085629,59.0464844 C105.704623,59.454874 103.493114,60.8039326 102.039537,62.734435 C101.873435,62.9550359 101.55995,62.9992159 101.339349,62.8331139 C101.118748,62.6670119 101.074568,62.3535273 101.24067,62.1329264 C102.847539,59.9988373 105.284314,58.5123624 107.916578,58.0608771 Z" id="Shape" fill="#E0A797" transform="translate(104.820630, 60.493655) scale(-1, -1) translate(-104.820630, -60.493655) "></path>
                <path d="M111.901892,64.3997172 C112.091084,64.1985686 112.407518,64.1888763 112.608667,64.378069 C112.809816,64.5672616 112.819508,64.8836957 112.630315,65.0848443 C110.879959,66.9458146 108.801138,68.4947345 106.518031,69.638334 C106.27113,69.7620056 105.970722,69.6621086 105.84705,69.415208 C105.723379,69.1683073 105.823276,68.8678991 106.070176,68.7442275 C108.248158,67.6532851 110.232014,66.1751228 111.901892,64.3997172 Z" id="Shape" fill="#E0A797"></path>
                <path d="M83.6222739,68.5392173 C84.6493434,67.7916991 85.9263829,67.4037894 87.1948126,67.4481011 L87.4663929,67.4642386 L88.2572932,67.530733 L86.4618198,70.5933963 C86.3221383,70.8316057 86.0157973,70.9114784 85.7775879,70.771797 C85.5393785,70.6321156 85.4595058,70.3257746 85.5991873,70.0875652 L86.548,68.467 L86.3505881,68.489742 C85.6671907,68.5847233 85.0036921,68.8279836 84.4240452,69.2015737 L84.2107331,69.3477442 C83.9874646,69.5102427 83.6747386,69.4609789 83.5122401,69.2377104 C83.3497415,69.0144418 83.3990053,68.7017158 83.6222739,68.5392173 Z" id="Shape" fill="#E0A797"></path>
                <path d="M81.20483,66.8519952 C82.0496099,65.1556043 84.1013947,64.1840298 85.9486037,64.605403 C86.2178302,64.6668172 86.3862954,64.9348545 86.3248812,65.204081 C86.263467,65.4733075 85.9954298,65.6417726 85.7262033,65.5803584 C84.3289965,65.2616368 82.739007,66.0145389 82.1000968,67.2975255 C81.4618178,68.5809745 81.8199103,70.3028886 82.9173234,71.2263006 C83.1286166,71.404092 83.1557751,71.7195074 82.9779837,71.9308006 C82.8001922,72.1420938 82.4847768,72.1692524 82.2734836,71.9914609 C80.8230189,70.7709757 80.3609181,68.54893 81.20483,66.8519952 Z" id="Shape" fill="#E0A797"></path>
                <path d="M81.7954035,31.4219807 C81.6694035,31.4219807 81.5444035,31.3769807 81.4444035,31.2839807 C81.2374035,31.0909807 81.2264035,30.7659807 81.4194035,30.5589807 C82.6654035,29.2189807 84.4134035,28.5659807 86.1074035,28.8099807 C86.3884035,28.8509807 86.5824035,29.1109807 86.5424035,29.3929807 C86.5014035,29.6719807 86.2334035,29.8599807 85.9604035,29.8259807 C84.6094035,29.6309807 83.1894035,30.1639807 82.1714035,31.2589807 C82.0694035,31.3659807 81.9324035,31.4219807 81.7954035,31.4219807" id="Shape" fill="#D76D75"></path>
                <path d="M89.4136035,32.0410807 C89.3826035,32.0410807 89.3516035,32.0380807 89.3206035,32.0330807 L87.6346035,31.7290807 C87.3556035,31.6800807 87.1706035,31.4130807 87.2206035,31.1330807 C87.2696035,30.8540807 87.5416035,30.6760807 87.8166035,30.7190807 L89.5036035,31.0220807 C89.7816035,31.0730807 89.9676035,31.3410807 89.9176035,31.6190807 C89.8726035,31.8670807 89.6566035,32.0410807 89.4136035,32.0410807" id="Shape" fill="#D76D75"></path>
                <path d="M81.9155035,34.7813807 C81.8865035,34.7813807 81.8565035,34.7793807 81.8275035,34.7743807 C81.5485035,34.7263807 81.3605035,34.4623807 81.4075035,34.1813807 C81.5325035,33.4553807 81.9885035,32.8153807 82.6305035,32.4723807 C83.1755035,32.1803807 83.7845035,32.1473807 84.3085035,32.3803807 C84.5655035,32.4953807 84.6825035,32.8003807 84.5655035,33.0573807 C84.4505035,33.3163807 84.1465035,33.4333807 83.8885035,33.3163807 C83.5745035,33.1783807 83.2695035,33.2943807 83.1145035,33.3783807 C82.7565035,33.5693807 82.4895035,33.9433807 82.4205035,34.3543807 C82.3775035,34.6053807 82.1605035,34.7813807 81.9155035,34.7813807" id="Shape" fill="#D76D75"></path>
                <path d="M202.615704,86.5410807 L199.181704,52.4920807 C184.945704,52.3440807 173.182704,53.2460807 164.882704,54.5190807 C155.701704,55.9270807 146.699704,58.8260807 138.328704,62.9740807 C142.972704,89.1980807 112.450704,107.636081 92.0107035,87.3950807 C92.0107035,87.3950807 79.7597035,90.1880807 74.4027035,91.4650807 C74.3667035,106.117081 74.1957035,120.742081 76.0387035,135.010081 C82.0607035,134.595081 96.1687035,133.510081 96.1687035,133.510081 C96.1687035,133.510081 154.318704,170.744081 178.932704,178.076081 L241.927704,103.256081 L202.615704,86.5410807 Z" id="Shape" fill="#68A885"></path>
                <path d="M43.8562116,99.8089642 C43.9407756,100.354736 43.5668924,100.865725 43.0211201,100.950289 L41.9752406,101.121207 L41.1074397,101.269834 C40.5087461,101.37413 39.8709259,101.488775 39.2011361,101.61332 C36.3318502,102.146849 33.4631524,102.751417 30.7896915,103.414297 C28.5679415,103.965176 26.5801457,104.532869 24.8878805,105.11218 C24.3653643,105.291052 23.7967766,105.012474 23.6179043,104.489958 C23.439032,103.967442 23.7176104,103.398854 24.2401265,103.219982 C25.9931756,102.619862 28.0345499,102.036868 30.3083698,101.473079 C32.6364467,100.895836 35.1039178,100.363453 37.590932,99.8829306 L38.8355129,99.6470237 C39.3437113,99.5525266 39.8338018,99.4636478 40.3027888,99.3805699 L42.0637977,99.078891 L42.7148869,98.9738726 C43.2606592,98.8893087 43.7716477,99.2631919 43.8562116,99.8089642 Z" id="Shape" fill="#E0A797"></path>
                <path d="M74.4028035,91.4649807 C72.1958035,91.9899807 69.9928035,92.5289807 67.7888035,93.0669807 C67.7258035,107.339981 67.3328035,121.581981 69.8628035,135.387981 C71.9328035,135.274981 73.9958035,135.149981 76.0388035,135.009981 C74.1958035,120.741981 74.3668035,106.116981 74.4028035,91.4649807" id="Shape" fill="#437858"></path>
                <polygon id="Shape" fill="#437858" points="202.615704 86.5410807 194.824704 83.3110807 193.110704 52.4920807 199.181704 52.4920807"></polygon>
                <path d="M197.079604,84.1416807 C196.946604,84.1416807 196.810604,84.1156807 196.680604,84.0576807 L178.532604,76.1356807 C178.026604,75.9146807 177.795604,75.3266807 178.017604,74.8196807 C178.238604,74.3146807 178.823604,74.0796807 179.333604,74.3036807 L197.480604,82.2256807 C197.986604,82.4466807 198.218604,83.0356807 197.996604,83.5416807 C197.832604,83.9176807 197.465604,84.1416807 197.079604,84.1416807" id="Shape" fill="#437858"></path>
                <path d="M111.507304,96.2090807 C104.265304,96.2090807 97.0073035,93.5770807 91.6983035,88.5690807 C91.2973035,88.1900807 91.2783035,87.5580807 91.6573035,87.1550807 C92.0373035,86.7540807 92.6693035,86.7340807 93.0713035,87.1140807 C101.174304,94.7590807 114.163304,96.4500807 123.952304,91.1340807 C133.897304,85.7350807 139.465304,74.4130807 137.495304,63.6000807 C137.396304,63.0560807 137.756304,62.5350807 138.299304,62.4370807 C138.841304,62.3370807 139.363304,62.6980807 139.462304,63.2400807 C141.585304,74.8940807 135.600304,87.0860807 124.907304,92.8920807 C120.792304,95.1250807 116.153304,96.2090807 111.507304,96.2090807" id="Shape" fill="#437858"></path>
                <polygon id="Shape" fill="#F7C7B5" points="348.754404 299.970781 338.577404 276.535781 351.103404 265.714781 356.806404 296.217781"></polygon>
                <path d="M348.754404,299.970781 L356.806404,296.217781 C359.969404,295.903781 376.981404,289.428781 378.342404,292.427781 C379.703404,295.427781 366.549404,305.407781 352.842404,304.776781 C350.181404,304.653781 349.266404,302.331781 348.754404,299.970781" id="Shape" fill="#353D59"></path>
                <polygon id="Shape" fill="#F7C7B5" points="384.279804 140.177881 363.028804 118.017881 373.651804 107.747881 390.930804 133.518881"></polygon>
                <path d="M384.279804,140.177881 L390.930804,133.518881 C393.967804,132.052881 408.550804,119.424881 411.003804,121.899881 C413.454804,124.373881 403.995804,139.066881 390.108804,143.445881 C387.411804,144.295881 385.651804,142.328881 384.279804,140.177881" id="Shape" fill="#353D59"></path>
                <path d="M334.274904,286.833081 L356.956904,275.797081 C355.759904,269.597081 354.587904,262.301081 353.356904,254.492081 C343.862904,255.022081 334.859904,258.706081 326.611904,267.229081 L334.274904,286.833081 Z" id="Shape" fill="#323863"></path>
                <path d="M259.906704,142.889781 L314.481704,77.0427807 L353.427704,117.998781 C363.633704,113.134781 370.531704,105.484781 375.346704,96.0787807 L335.673704,43.6897807 C311.493704,9.88478075 261.990704,65.3767807 233.132704,97.7457807 L178.932704,178.076781 C234.504704,197.045781 302.048704,204.393781 302.048704,204.393781 L326.611704,267.228781 L353.356704,254.492781 C348.515704,223.799781 342.743704,185.173781 330.886704,173.927781 C316.012704,159.819781 284.075704,148.706781 259.906704,142.889781" id="Shape" fill="#3B4772"></path>
                <polygon id="Shape" fill="#323863" points="388.483904 113.425881 375.346904 96.0788807 353.427904 117.998881 366.137904 131.363881"></polygon>
                <path d="M197.722104,184.412181 C197.663104,184.412181 197.604104,184.407181 197.543104,184.396181 C197.000104,184.298181 196.639104,183.778181 196.737104,183.234181 C198.143104,175.444181 196.169104,166.994181 191.459104,160.632181 C191.130104,160.188181 191.224104,159.562181 191.668104,159.233181 C192.112104,158.903181 192.738104,158.997181 193.067104,159.442181 C198.099104,166.239181 200.207104,175.266181 198.705104,183.590181 C198.618104,184.073181 198.197104,184.412181 197.722104,184.412181" id="Shape" fill="#323863"></path>
                <path d="M259.178204,142.773581 C259.091204,142.773581 259.003204,142.762581 258.915204,142.738581 L241.194204,137.925581 C240.660204,137.781581 240.346204,137.231581 240.491204,136.699581 C240.635204,136.166581 241.187204,135.848581 241.717204,135.996581 L259.439204,140.808581 C259.972204,140.953581 260.286204,141.502581 260.142204,142.035581 C260.021204,142.480581 259.617204,142.773581 259.178204,142.773581" id="Shape" fill="#323863"></path>
            </g>
            <g id="Element" transform="translate(94.692600, 312.598681)">
                <path d="M25.561,-7.10542736e-15 L7.10542736e-14,-7.10542736e-15 L7.10542736e-14,26.598 C7.10542736e-14,28.455 1.506,29.962 3.365,29.962 L22.197,29.962 C24.054,29.962 25.561,28.455 25.561,26.598 L25.561,-7.10542736e-15 Z" id="Shape" fill="#4C7BB1"></path>
                <path d="M21.4262,8.4102 C19.0082,8.4102 17.0402,10.3782 17.0402,12.7962 L17.0402,18.6822 C17.0402,21.1002 19.0082,23.0682 21.4262,23.0682 L27.3132,23.0682 C29.7312,23.0682 31.6982,21.1002 31.6982,18.6822 L31.6982,12.7962 C31.6982,10.3782 29.7312,8.4102 27.3132,8.4102 L21.4262,8.4102 Z M27.3132,26.9082 L21.4262,26.9082 C16.8902,26.9082 13.2002,23.2192 13.2002,18.6822 L13.2002,12.7962 C13.2002,8.2612 16.8902,4.5702 21.4262,4.5702 L27.3132,4.5702 C31.8482,4.5702 35.5382,8.2612 35.5382,12.7962 L35.5382,18.6822 C35.5382,23.2192 31.8482,26.9082 27.3132,26.9082 L27.3132,26.9082 Z" id="Shape" fill="#4C7BB1"></path>
                <path d="M0.0005,-1.42108547e-14 L25.5615,-1.42108547e-14 C25.5615,-1.42108547e-14 14.0905,7.652 0.0005,-1.42108547e-14" id="Shape" fill="#386795"></path>
            </g>
        </g>
    </g>
</svg>